<?xml version="1.0" encoding="UTF-8"?>
<svg width="512px" height="512px" viewBox="0 0 512 512" version="1.1" xmlns="http://www.w3.org/2000/svg" xmlns:xlink="http://www.w3.org/1999/xlink">
    <title>dr-nur-icon</title>
    <g id="dr-nur-icon" stroke="none" stroke-width="1" fill="none" fill-rule="evenodd">
        <rect fill="#024058" x="0" y="0" width="512" height="512"></rect>
        <g id="N" transform="translate(64.000000, 76.000000)" fill="#FFFFFF" fill-rule="nonzero">
            <path d="M0,0 L95.9241706,0 L312.014218,264.951379 L312.014218,61.2227866 C312.014218,39.5125786 309.581359,25.9654088 304.71564,20.5812772 C298.459716,13.2866473 288.293839,9.63933237 274.218009,9.63933237 L261.966825,9.63933237 L261.966825,0 L385,0 L385,9.63933237 L372.488152,9.63933237 C357.71722,9.63933237 347.116904,14.1550556 340.687204,23.1865022 C338.949447,25.7917271 337.559242,30.3508708 336.516588,36.8639332 C335.473934,43.3769956 334.952607,51.4966134 334.952607,61.2227866 L334.952607,359 L325.56872,359 L92.535545,74.509434 L92.535545,292.045718 C92.535545,313.582245 94.8815166,327.129415 99.5734597,332.687228 C106.176935,339.981858 116.342812,343.629173 130.07109,343.629173 L142.582938,343.629173 L142.582938,353.268505 L19.549763,353.268505 L19.549763,343.629173 L31.8009479,343.629173 C46.9194313,343.629173 57.6066351,339.113449 63.8625592,330.082003 C65.600316,327.476778 66.9905213,322.917634 68.0331754,316.404572 C69.0758294,309.891509 69.5971564,301.771892 69.5971564,292.045718 L69.5971564,46.3730044 C59.6919431,34.5626512 52.0892575,26.7903967 46.7890995,23.0562409 C41.4889415,19.3220851 33.5387046,15.6313498 22.9383886,11.9840348 C17.8988942,10.4208999 10.2527646,9.63933237 0,9.63933237 L0,0 Z" id="Path"></path>
        </g>
    </g>
</svg>