<?xml version="1.0" standalone="no"?>
<!DOCTYPE svg PUBLIC "-//W3C//DTD SVG 20010904//EN"
 "http://www.w3.org/TR/2001/REC-SVG-20010904/DTD/svg10.dtd">
<svg version="1.0" xmlns="http://www.w3.org/2000/svg"
 width="700.000000pt" height="700.000000pt" viewBox="0 0 700.000000 700.000000"
 preserveAspectRatio="xMidYMid meet">
<metadata>
Created by potrace 1.14, written by Peter Selinger 2001-2017
</metadata>
<g transform="translate(0.000000,700.000000) scale(0.100000,-0.100000)"
fill="#000000" stroke="none">
<path d="M0 3500 l0 -3500 3500 0 3500 0 0 3500 0 3500 -3500 0 -3500 0 0
-3500z m3661 653 l1474 -1807 3 169 c1 94 1 782 -1 1530 -4 1412 -3 1393 -47
1537 -50 164 -220 247 -512 248 l-118 0 0 65 0 65 840 0 840 0 0 -64 0 -63
-157 -6 c-217 -7 -298 -33 -399 -129 -62 -59 -87 -115 -111 -252 -14 -81 -17
-324 -20 -2243 l-4 -2153 -59 0 -59 0 -94 112 c-51 62 -768 936 -1592 1943
-824 1007 -1500 1832 -1502 1835 -2 2 -2 -729 0 -1625 3 -1170 7 -1646 15
-1685 28 -133 52 -190 98 -235 90 -88 203 -124 417 -132 l147 -6 0 -63 0 -64
-840 0 -840 0 0 63 0 64 153 6 c222 9 322 43 415 141 54 57 79 120 103 256 9
47 13 574 16 1863 l4 1798 -87 100 c-146 168 -213 223 -349 289 -66 32 -149
67 -185 79 -66 21 -207 41 -292 41 l-48 0 0 65 0 65 659 0 658 0 1474 -1807z"/>
</g>
</svg>
